<?xml version="1.0" standalone="no"?>
<!DOCTYPE svg PUBLIC "-//W3C//DTD SVG 20010904//EN"
 "http://www.w3.org/TR/2001/REC-SVG-20010904/DTD/svg10.dtd">
<svg version="1.0" xmlns="http://www.w3.org/2000/svg"
 width="256.000000pt" height="256.000000pt" viewBox="0 0 256.000000 256.000000"
 preserveAspectRatio="xMidYMid meet">
<metadata>
Created by potrace 1.14, written by Peter Selinger 2001-2017
</metadata>
<g transform="translate(0.000000,256.000000) scale(0.100000,-0.100000)"
fill="#000000" stroke="none">
<path d="M1020 2430 c-194 -40 -341 -127 -430 -255 -56 -80 -78 -198 -54 -287
l12 -47 -66 -43 c-92 -60 -218 -190 -270 -277 -85 -144 -121 -309 -98 -446 11
-65 38 -158 54 -182 8 -13 11 -31 8 -40 -4 -10 -4 -14 0 -10 4 4 14 -3 22 -14
12 -18 13 -23 1 -31 -11 -8 -10 -9 4 -4 9 3 17 2 17 -3 0 -4 11 -21 25 -37 14
-16 25 -35 25 -42 0 -7 4 -10 10 -7 9 6 14 -8 11 -28 0 -4 5 -6 11 -5 7 2 12
-3 10 -10 -1 -6 4 -11 10 -10 7 2 12 -3 10 -10 -1 -8 2 -11 7 -8 5 3 15 -2 22
-11 10 -12 10 -14 2 -9 -19 11 -16 1 4 -15 14 -12 16 -12 9 0 -5 8 -5 12 1 10
14 -5 80 -58 111 -89 14 -14 22 -19 18 -12 -5 8 10 2 33 -12 22 -14 45 -26 50
-26 5 0 14 -7 21 -15 7 -8 17 -12 23 -8 6 4 7 1 3 -6 -5 -8 -3 -11 5 -10 8 1
23 -1 34 -5 11 -5 43 -16 70 -26 28 -10 59 -21 70 -26 11 -4 23 -6 28 -6 4 1
7 -2 7 -8 0 -14 -13 -13 -28 2 -7 7 -12 8 -12 2 0 -5 9 -15 19 -21 17 -11 21
-9 26 7 5 15 11 18 23 11 19 -9 66 -19 127 -27 22 -3 43 -11 47 -17 16 -25 7
-27 -24 -6 -18 12 -27 16 -20 9 23 -26 12 -33 -15 -9 -14 13 -23 18 -19 12 9
-15 -10 -18 -19 -3 -4 6 -11 8 -16 5 -5 -4 -9 -1 -9 4 0 6 -5 11 -11 11 -5 0
-7 -4 -4 -10 3 -5 2 -10 -4 -10 -5 0 -14 7 -19 16 -12 21 -28 11 -34 -21 -3
-13 -1 -22 3 -19 5 3 9 15 9 26 0 20 1 20 18 5 10 -9 28 -15 40 -12 12 2 22
-1 22 -7 0 -6 9 -8 20 -5 21 5 44 -15 32 -28 -4 -5 -2 -5 5 -2 6 4 19 0 27 -9
9 -8 16 -10 16 -4 0 6 -7 13 -15 16 -8 4 -12 10 -9 16 8 13 55 -32 48 -46 -3
-6 6 4 21 22 15 18 31 30 36 26 5 -3 1 -13 -9 -22 -10 -9 -13 -13 -6 -9 7 4
22 10 34 12 16 3 20 0 16 -10 -3 -9 1 -12 16 -10 11 3 23 7 27 11 3 4 -2 4
-11 1 -12 -4 -19 1 -24 16 -5 12 -7 26 -6 30 1 5 -2 6 -7 2 -6 -3 -7 -13 -4
-23 5 -12 -1 -10 -22 8 -16 14 -25 20 -21 13 3 -6 2 -14 -3 -17 -5 -3 -11 1
-15 9 -3 8 -12 12 -21 9 -8 -3 -15 -2 -15 4 0 6 18 9 39 9 22 -1 37 -5 34 -9
-2 -5 0 -8 6 -8 5 0 13 5 16 10 4 7 12 7 25 0 13 -7 21 -7 25 0 9 15 25 2 19
-15 -5 -11 -11 -12 -25 -5 -15 8 -17 7 -13 -5 3 -8 10 -13 14 -10 5 3 15 -4
23 -15 7 -11 17 -17 20 -13 6 6 11 -20 8 -40 -1 -5 3 -6 8 -3 12 8 2 46 -14
53 -7 2 -12 15 -10 29 3 30 11 39 20 25 3 -6 1 -11 -4 -11 -7 0 -7 -7 1 -20 7
-11 18 -20 25 -20 7 0 13 -4 13 -10 0 -5 5 -10 10 -10 6 0 5 8 -2 19 -7 11
-15 18 -19 15 -12 -7 -20 12 -13 30 10 26 54 11 54 -19 0 -5 -5 -3 -10 5 -5 8
-10 11 -10 5 0 -19 18 -37 31 -33 8 3 28 -1 44 -9 27 -13 28 -13 11 1 -11 9
-17 19 -13 22 4 4 13 2 20 -4 9 -8 17 -8 24 -1 13 13 45 0 36 -15 -3 -6 3 -2
15 8 12 11 22 14 22 8 0 -7 5 -12 11 -12 8 0 7 5 -1 15 -7 9 -10 18 -7 22 4 3
2 14 -4 24 -7 15 -6 19 5 19 8 0 23 3 33 6 16 5 16 4 3 -8 -9 -7 -16 -24 -17
-38 -2 -23 -1 -23 11 -8 7 10 16 15 20 11 3 -3 -1 -14 -9 -23 -13 -14 -13 -17
-1 -17 8 0 14 5 13 11 -1 6 6 10 15 10 10 -1 16 2 13 5 -6 10 24 51 37 51 7 0
7 -4 0 -13 -7 -9 -8 -17 -1 -27 9 -13 10 -13 6 0 -2 8 3 23 11 33 12 14 13 20
3 30 -10 9 -11 8 -6 -8 4 -11 3 -16 -2 -10 -12 14 -33 17 -31 4 2 -6 -2 -13
-8 -16 -6 -2 -11 3 -11 12 0 14 12 21 59 31 39 9 41 10 95 36 43 21 53 23 58
11 3 -10 1 -13 -9 -10 -10 4 -13 1 -9 -9 3 -7 0 -14 -6 -14 -6 0 -11 5 -11 10
0 6 -5 10 -11 10 -5 0 -7 -5 -3 -12 4 -7 3 -8 -4 -4 -7 4 -12 2 -12 -4 0 -7 6
-10 14 -7 8 3 22 0 32 -7 15 -12 21 -10 37 8 18 20 18 20 13 1 -6 -19 -5 -19
8 -2 7 9 18 17 24 17 6 0 17 9 25 20 8 11 16 18 18 16 2 -2 5 7 6 21 1 19 -1
22 -8 12 -7 -12 -9 -12 -9 1 0 13 -1 13 -10 0 -6 -9 -10 -10 -10 -3 0 12 36
37 53 38 4 0 12 6 16 14 11 16 19 3 16 -26 -1 -12 2 -20 7 -17 4 3 8 0 8 -5 0
-6 5 -11 11 -11 5 0 8 4 5 9 -4 5 -3 11 1 14 5 2 2 2 -6 0 -8 -2 -11 2 -8 12
4 8 2 17 -4 20 -16 10 2 27 23 22 23 -7 50 2 43 13 -3 4 3 14 12 21 14 12 15
11 9 -7 -5 -15 -2 -24 10 -28 13 -5 15 -4 5 7 -14 17 11 43 31 32 7 -4 5 0 -4
8 -23 18 -23 22 2 24 13 1 18 -2 13 -10 -5 -9 -2 -8 9 0 8 7 18 10 22 6 4 -4
4 0 0 10 -7 18 11 24 19 7 3 -6 4 -5 3 2 -2 8 -18 13 -38 14 -27 0 -35 -3 -31
-13 3 -8 2 -13 -3 -12 -27 5 -36 -1 -24 -15 9 -12 8 -15 -9 -13 -29 2 -26 10
14 46 19 17 35 36 35 42 0 7 3 9 7 6 3 -4 15 5 25 20 10 16 18 24 18 18 0 -5
14 15 30 45 17 30 35 57 41 61 6 3 10 8 9 10 -2 4 20 58 27 68 1 2 9 -2 18 -9
8 -7 15 -8 15 -2 0 5 -7 13 -16 16 -11 4 -14 12 -9 24 4 9 8 25 10 35 2 10 7
27 10 37 11 33 17 65 17 83 -1 10 4 15 10 11 7 -5 8 -2 3 6 -5 7 -8 42 -9 77
0 34 -3 63 -6 63 -3 0 -6 8 -7 18 -9 109 -90 271 -192 382 -28 30 -50 58 -51
62 0 4 13 29 28 55 16 26 30 53 31 58 2 6 8 21 13 35 22 57 44 168 42 210 -3
60 -45 152 -80 177 -55 38 -105 51 -189 48 -45 -1 -90 -7 -102 -14 -30 -15
-68 -14 -83 4 -42 50 -222 128 -350 152 -72 13 -260 9 -340 -7z m971 -336 c56
-10 60 -93 9 -194 -18 -36 -39 -75 -47 -87 l-15 -22 -39 26 c-43 28 -44 30
-29 68 13 34 15 88 6 142 -7 41 -7 43 26 56 38 16 53 17 89 11z m129 -1464 c0
-5 -2 -10 -4 -10 -3 0 -8 5 -11 10 -3 6 -1 10 4 10 6 0 11 -4 11 -10z m-102
-60 c-14 -22 -24 -25 -33 -10 -3 6 1 10 10 10 9 0 13 5 10 10 -3 6 1 10 9 10
14 0 14 -3 4 -20z m-144 -103 c11 12 6 -13 -6 -29 -17 -21 -50 -32 -46 -15 2
7 -1 13 -7 14 -5 0 -9 -4 -7 -9 3 -13 -17 -38 -31 -38 -5 0 -3 8 5 18 9 9 14
25 13 35 -4 21 13 22 43 1 12 -8 22 -11 22 -6 0 6 -7 12 -15 16 -8 3 -15 10
-15 16 0 7 6 8 19 1 10 -6 21 -7 25 -4z m-307 -132 c4 -25 -10 -34 -22 -15 -4
6 -11 7 -17 4 -7 -5 -8 -2 -4 5 5 7 14 10 21 7 9 -3 11 2 7 17 -3 12 -1 18 4
14 4 -4 10 -19 11 -32z m-88 -37 c-8 -14 -14 -16 -29 -8 -11 6 -24 18 -29 28
-6 9 -11 11 -11 5 0 -7 -5 -13 -11 -13 -5 0 -7 5 -3 12 4 7 3 8 -5 4 -15 -10
-3 -29 15 -22 8 3 14 2 14 -3 0 -15 -13 -21 -26 -10 -7 6 -19 7 -26 3 -27 -17
-45 -14 -43 9 1 14 9 23 21 24 10 0 36 4 58 8 24 4 36 3 32 -3 -3 -5 1 -15 10
-22 12 -11 17 -11 27 0 9 10 9 11 0 6 -20 -11 -36 3 -22 20 10 12 13 12 24 -3
9 -12 10 -23 4 -35z m-389 -22 c-15 -15 -33 4 -19 20 10 12 14 12 20 2 5 -7 4
-17 -1 -22z"/>
<path d="M1347 305 c3 -8 9 -12 14 -9 12 7 11 11 -5 17 -10 4 -13 1 -9 -8z"/>
<path d="M2290 979 c0 -5 5 -7 10 -4 6 3 10 8 10 11 0 2 -4 4 -10 4 -5 0 -10
-5 -10 -11z"/>
<path d="M2279 933 c-12 -16 -12 -17 2 -6 9 7 20 9 24 5 5 -4 5 -1 1 6 -9 16
-11 15 -27 -5z"/>
<path d="M2256 882 c-3 -4 4 -9 15 -9 23 -2 25 3 4 10 -8 4 -16 3 -19 -1z"/>
<path d="M2246 818 c3 -5 10 -6 15 -3 13 9 11 12 -6 12 -8 0 -12 -4 -9 -9z"/>
<path d="M2306 802 c-3 -5 1 -9 9 -9 8 0 15 4 15 9 0 4 -4 8 -9 8 -6 0 -12 -4
-15 -8z"/>
<path d="M2200 785 c-7 -9 -8 -15 -2 -15 5 0 12 7 16 15 3 8 4 15 2 15 -2 0
-9 -7 -16 -15z"/>
<path d="M2200 751 c0 -7 -4 -10 -9 -7 -4 3 -13 -6 -20 -20 -6 -14 -16 -22
-21 -19 -6 3 -10 2 -10 -4 0 -5 -8 -18 -17 -27 -17 -17 -17 -18 1 -11 10 4 25
2 32 -4 9 -7 14 -8 14 -1 0 5 -8 13 -17 16 -14 6 -14 9 6 22 18 13 25 13 39 3
16 -12 16 -12 0 6 -16 17 -16 19 0 31 9 7 14 16 9 20 -4 4 -7 2 -7 -5z"/>
<path d="M2210 720 c0 -4 7 -7 15 -6 23 3 26 12 5 13 -11 1 -20 -2 -20 -7z"/>
<path d="M2175 680 c3 -5 8 -10 11 -10 2 0 4 5 4 10 0 6 -5 10 -11 10 -5 0 -7
-4 -4 -10z"/>
<path d="M2230 686 c0 -2 7 -7 16 -10 8 -3 12 -2 9 4 -6 10 -25 14 -25 6z"/>
<path d="M2115 589 c-4 -6 -5 -12 -2 -15 2 -3 7 2 10 11 7 17 1 20 -8 4z"/>
<path d="M2070 566 c0 -2 7 -7 16 -10 8 -3 12 -2 9 4 -6 10 -25 14 -25 6z"/>
<path d="M453 525 c0 -7 6 -11 14 -8 7 3 13 6 13 8 0 2 -6 5 -13 8 -8 3 -14
-1 -14 -8z"/>
<path d="M1976 526 c3 -8 13 -17 21 -20 25 -10 23 -3 -3 17 -18 13 -22 14 -18
3z"/>
<path d="M2016 531 c-4 -5 3 -7 14 -4 23 6 26 13 6 13 -8 0 -17 -4 -20 -9z"/>
<path d="M1909 491 c5 -9 6 -22 3 -30 -2 -8 0 -11 5 -8 15 10 13 54 -3 54 -9
0 -10 -6 -5 -16z"/>
<path d="M540 460 c-12 -7 -10 -9 7 -7 12 0 19 5 17 9 -6 10 -6 10 -24 -2z"/>
<path d="M655 399 c-3 -4 2 -6 10 -5 21 3 28 13 10 13 -9 0 -18 -4 -20 -8z"/>
<path d="M696 395 c-9 -26 -7 -32 5 -12 6 10 9 21 6 23 -2 3 -7 -2 -11 -11z"/>
<path d="M736 381 c-3 -5 2 -15 12 -22 15 -13 16 -12 4 3 -10 13 -10 17 0 21
9 4 9 6 1 6 -6 1 -14 -3 -17 -8z"/>
<path d="M1658 385 c-3 -4 5 -17 19 -31 26 -27 43 -33 23 -9 -12 14 -10 15 14
11 15 -3 24 -1 21 5 -4 5 -2 9 4 9 5 0 11 -6 14 -12 2 -7 8 -9 13 -5 14 13
-16 25 -55 22 -20 -1 -39 2 -42 7 -3 4 -8 6 -11 3z"/>
<path d="M771 353 c0 -11 3 -13 6 -5 2 6 10 9 15 6 7 -4 8 -2 4 4 -11 18 -26
14 -25 -5z"/>
<path d="M1800 360 c-9 -6 -10 -10 -3 -10 6 0 15 5 18 10 8 12 4 12 -15 0z"/>
<path d="M1640 337 c-12 -21 -12 -21 6 -7 10 8 20 15 22 16 2 1 -1 4 -5 7 -5
3 -15 -4 -23 -16z"/>
<path d="M1655 320 c-4 -6 1 -7 11 -3 13 5 15 3 9 -7 -5 -9 -4 -11 4 -6 6 4 9
12 6 17 -8 12 -22 12 -30 -1z"/>
<path d="M1275 310 c-3 -5 -1 -10 4 -10 6 0 11 5 11 10 0 6 -2 10 -4 10 -3 0
-8 -4 -11 -10z"/>
<path d="M1590 301 c0 -6 4 -13 10 -16 6 -3 7 1 4 9 -7 18 -14 21 -14 7z"/>
<path d="M950 285 c0 -5 5 -17 10 -25 5 -8 10 -10 10 -5 0 6 -5 17 -10 25 -5
8 -10 11 -10 5z"/>
<path d="M975 280 c3 -5 8 -10 11 -10 2 0 4 5 4 10 0 6 -5 10 -11 10 -5 0 -7
-4 -4 -10z"/>
<path d="M1419 268 c-6 -21 -5 -37 2 -32 5 3 7 9 4 14 -3 4 1 11 7 13 10 4 10
6 1 6 -7 1 -13 0 -14 -1z"/>
<path d="M1326 244 c-23 -23 -20 -30 4 -9 11 10 20 20 20 22 0 7 -9 2 -24 -13z"/>
<path d="M1195 241 c-3 -5 0 -13 6 -17 7 -4 9 -3 5 4 -3 5 0 13 6 15 9 4 10 6
1 6 -6 1 -14 -3 -18 -8z"/>
</g>
</svg>
